<?xml version="1.0" standalone="no"?>
<!DOCTYPE svg PUBLIC "-//W3C//DTD SVG 20010904//EN"
 "http://www.w3.org/TR/2001/REC-SVG-20010904/DTD/svg10.dtd">
<svg version="1.0" xmlns="http://www.w3.org/2000/svg"
 width="1020.000000pt" height="1020.000000pt" viewBox="0 0 1020.000000 1020.000000"
 preserveAspectRatio="xMidYMid meet">
<metadata>
Created by potrace 1.11, written by Peter Selinger 2001-2013
</metadata>
<g transform="translate(0.000000,1020.000000) scale(0.100000,-0.100000)"
fill="#000000" stroke="none">
<path d="M735 10021 c-201 -49 -338 -190 -381 -391 -19 -88 -15 -338 11 -655
77 -963 80 -989 130 -1120 50 -132 178 -325 346 -520 72 -83 338 -350 454
-455 103 -93 906 -809 1350 -1203 253 -225 477 -427 498 -449 65 -71 59 -84
-135 -291 -60 -64 -121 -120 -134 -123 -33 -8 -58 10 -189 136 -210 204 -362
274 -585 274 -91 0 -130 -5 -190 -23 -263 -80 -593 -365 -716 -618 -130 -268
-86 -561 132 -864 30 -42 106 -131 168 -197 115 -123 130 -149 114 -193 -9
-25 -454 -469 -542 -540 -45 -37 -54 -40 -95 -36 -26 2 -82 14 -126 26 -168
46 -301 35 -443 -35 -158 -77 -311 -266 -378 -464 -26 -79 -24 -235 4 -313 51
-139 123 -227 496 -607 645 -657 1051 -1055 1109 -1089 268 -157 585 -122 797
88 194 192 252 433 165 684 -29 84 -31 117 -11 156 22 42 545 552 582 567 23
10 41 11 58 4 14 -5 85 -64 158 -131 247 -227 341 -299 443 -342 206 -85 431
-44 665 121 92 65 304 279 388 392 82 110 145 237 162 328 19 93 8 240 -24
331 -48 139 -116 239 -268 399 -54 57 -101 114 -104 127 -12 47 -16 43 281
326 153 145 168 151 246 99 67 -45 381 -331 399 -363 14 -25 13 -30 -5 -61
-11 -19 -60 -78 -110 -132 -122 -131 -161 -185 -205 -279 -57 -121 -74 -199
-74 -345 0 -103 4 -138 23 -200 46 -149 123 -273 245 -396 263 -262 556 -385
815 -341 172 29 269 89 543 339 158 144 185 160 232 134 18 -9 160 -145 315
-301 l283 -283 -4 -44 c-3 -23 -17 -76 -32 -116 -87 -238 -36 -468 146 -653
117 -120 246 -188 400 -210 71 -11 97 -10 173 4 103 19 220 72 310 140 52 39
407 396 1215 1222 124 126 240 253 258 281 179 282 112 622 -165 843 -179 143
-391 178 -608 101 -129 -46 -130 -45 -289 113 -212 212 -421 430 -440 458 -29
46 -12 74 136 225 77 79 164 173 194 211 62 76 125 200 145 283 21 83 16 259
-10 353 -89 333 -443 697 -768 789 -102 29 -278 31 -368 4 -141 -42 -249 -113
-423 -279 -57 -54 -113 -102 -124 -106 -46 -17 -72 1 -210 142 -141 145 -165
179 -154 221 4 16 142 146 384 362 207 186 379 341 382 344 3 3 111 100 240
215 129 115 237 212 240 215 3 3 68 62 145 130 136 122 470 421 630 565 44 40
123 109 175 155 202 176 245 216 307 289 126 148 206 309 237 482 15 80 33
253 55 514 16 182 48 566 67 795 9 117 14 246 11 300 -10 173 -77 312 -193
400 -148 113 -290 122 -944 60 -58 -5 -177 -17 -265 -25 -350 -32 -593 -56
-660 -66 -171 -24 -326 -87 -466 -190 -117 -86 -193 -162 -403 -399 -760 -860
-1711 -1927 -1766 -1982 -37 -38 -75 -68 -85 -68 -25 0 -134 112 -366 376 -79
90 -1323 1486 -1340 1504 -8 8 -66 74 -129 145 -169 191 -188 212 -265 294
-165 174 -353 272 -631 330 -106 21 -213 32 -579 56 -126 9 -361 27 -522 40
-338 29 -441 30 -538 6z m1023 -916 c246 -25 469 -50 495 -55 105 -22 114 -30
398 -355 167 -191 346 -394 804 -910 88 -99 162 -182 165 -185 3 -3 57 -63
120 -135 63 -71 131 -148 151 -170 20 -22 110 -123 200 -225 90 -102 166 -187
169 -190 3 -3 57 -63 120 -135 63 -71 117 -132 120 -135 3 -3 45 -50 94 -105
158 -176 229 -235 335 -277 75 -30 257 -33 341 -5 130 44 242 138 402 337 105
131 2021 2287 2116 2381 110 109 128 114 460 139 147 11 357 27 468 36 110 10
213 14 228 10 49 -12 51 -31 22 -318 -54 -531 -66 -627 -84 -684 -39 -124
-111 -206 -357 -402 -281 -225 -842 -720 -1405 -1242 -63 -58 -263 -243 -445
-410 -419 -386 -613 -579 -648 -646 -75 -144 -76 -310 -1 -462 56 -114 113
-183 458 -545 88 -93 171 -183 184 -202 42 -59 32 -75 -181 -292 -106 -107
-204 -201 -219 -209 -51 -26 -37 -37 -458 331 -418 366 -455 393 -577 430
-106 32 -255 14 -374 -46 -80 -40 -141 -91 -479 -404 -334 -310 -353 -325
-391 -325 -36 0 -60 20 -238 194 -191 189 -231 237 -231 281 0 37 -2 34 379
450 221 240 281 320 311 411 39 116 25 255 -37 379 -63 125 -163 232 -423 455
-200 171 -1044 912 -1060 930 -3 3 -129 116 -280 250 -1093 973 -1049 929
-1089 1070 -35 120 -40 172 -81 794 -14 205 -8 229 58 235 7 0 214 -19 460
-44z m6383 -4845 c28 -15 24 -62 -8 -102 -15 -18 -128 -135 -251 -259 -303
-307 -335 -357 -336 -529 -1 -107 15 -166 71 -268 59 -108 141 -197 489 -536
187 -181 432 -422 547 -536 185 -184 207 -209 207 -238 0 -28 -17 -50 -132
-168 -135 -138 -185 -178 -210 -169 -8 3 -41 47 -73 98 -52 81 -123 157 -584
619 -642 642 -643 643 -861 643 -186 -1 -239 -33 -541 -329 -236 -231 -279
-266 -320 -266 -35 0 -53 28 -40 63 5 14 403 416 883 893 1015 1010 1063 1058
1103 1078 36 19 32 18 56 6z m-5695 -312 c159 -156 397 -389 529 -518 572
-561 1114 -1099 1130 -1124 35 -53 -6 -100 -68 -77 -15 6 -113 95 -219 199
-106 104 -224 217 -263 251 -208 185 -411 207 -622 67 -37 -24 -204 -182 -410
-386 -694 -689 -862 -850 -887 -850 -26 0 -77 42 -213 174 -102 98 -148 158
-140 179 3 8 49 41 104 75 54 33 123 82 153 108 30 25 273 263 540 528 445
441 488 487 522 552 68 136 73 269 14 414 -42 102 -95 170 -291 370 -105 107
-205 212 -223 233 -55 64 -34 134 29 101 15 -7 157 -141 315 -296z"/>
</g>
</svg>
